<?xml version="1.0" standalone="no"?>
<!DOCTYPE svg PUBLIC "-//W3C//DTD SVG 20010904//EN"
 "http://www.w3.org/TR/2001/REC-SVG-20010904/DTD/svg10.dtd">
<svg version="1.0" xmlns="http://www.w3.org/2000/svg"
 width="805.000000pt" height="805.000000pt" viewBox="0 0 805.000000 805.000000"
 preserveAspectRatio="xMidYMid meet">
<metadata>
Created by potrace 1.11, written by Peter Selinger 2001-2013
</metadata>
<g transform="translate(0.000000,805.000000) scale(0.100000,-0.100000)"
fill="#000000" stroke="none">
<path d="M3755 8008 c-1034 -69 -2033 -561 -2718 -1338 -472 -536 -789 -1174
-926 -1865 -104 -524 -104 -1036 0 -1560 309 -1554 1504 -2771 3064 -3120 922
-206 1932 -62 2770 396 947 518 1648 1400 1935 2432 169 609 192 1233 69 1852
-230 1157 -964 2155 -2004 2724 -664 363 -1429 530 -2190 479z m2225 -1052
c226 -39 388 -100 506 -189 226 -172 250 -501 62 -844 -146 -267 -482 -611
-915 -940 -62 -47 -113 -88 -113 -90 0 -2 102 0 228 3 810 23 1444 -155 1697
-476 100 -128 146 -275 146 -467 0 -126 -11 -201 -48 -318 -214 -681 -1263
-1490 -2653 -2045 -622 -248 -1314 -452 -1695 -500 -130 -16 -357 -14 -445 4
-200 42 -334 164 -369 336 -30 149 -33 309 -40 1800 -8 1595 -7 1580 -49 1656
-15 29 -77 82 -118 102 -19 8 -34 19 -34 23 0 23 546 307 721 376 263 103 413
92 484 -38 l28 -53 -6 -375 c-4 -207 -12 -587 -18 -846 -6 -258 -12 -814 -12
-1235 -2 -806 -1 -834 43 -920 108 -210 492 -223 1157 -41 528 145 935 332
1276 587 465 346 707 702 707 1039 0 342 -212 609 -560 704 -255 70 -669 83
-1125 36 l-160 -16 -106 -54 c-263 -134 -568 -231 -848 -270 l-43 -6 7 58 c12
102 53 243 95 329 116 240 378 387 906 509 87 20 167 39 178 42 30 8 241 200
383 347 308 319 443 570 430 799 -12 212 -151 356 -402 413 -98 23 -378 26
-525 5 -587 -80 -1338 -331 -1915 -638 -526 -281 -946 -592 -1370 -1017 -281
-281 -520 -567 -705 -843 -30 -45 -58 -82 -61 -83 -11 0 -113 92 -150 138 -53
64 -86 135 -99 217 -60 374 349 863 1195 1430 788 529 1741 945 2760 1205 335
86 627 138 905 164 115 10 578 -2 670 -18z"/>
</g>
</svg>
